<svg width="319" height="95" viewBox="0 0 319 95" fill="none" xmlns="http://www.w3.org/2000/svg">
<path d="M318.5 50.5C318.5 56.3848 314.22 62.1074 306.19 67.404C298.181 72.6875 286.557 77.4649 272.149 81.4846C243.34 89.5222 203.513 94.5 159.5 94.5C115.487 94.5 75.6597 89.5222 46.8508 81.4846C32.4429 77.4649 20.8195 72.6875 12.8096 67.404C4.77987 62.1074 0.5 56.3848 0.5 50.5C0.5 44.6152 4.77987 38.8926 12.8096 33.596C20.8195 28.3125 32.4429 23.5351 46.8508 19.5154C75.6597 11.4778 115.487 6.5 159.5 6.5C203.513 6.5 243.34 11.4778 272.149 19.5154C286.557 23.5351 298.181 28.3125 306.19 33.596C314.22 38.8926 318.5 44.6152 318.5 50.5Z" fill="#9097D6" stroke="#001583"/>
<path d="M73.75 68L68.5625 27.5H68.3125C68.1667 29 67.8646 31.0625 67.4062 33.6875C66.9688 36.2917 66.5833 38.3646 66.25 39.9062L60.3125 68H55.25L64.9062 22.3125H72.5312L77.1875 59.9375H77.4688L98.0625 22.3125H106.375L96.9062 68H91.4688C94.0938 55.7083 96.1042 46.2812 97.5 39.7188C98.8958 33.1354 99.875 29.0417 100.438 27.4375H100.25L77.8438 68H73.75ZM109.25 33.75H114.5L116.812 50.7812C117.021 52.2188 117.219 54.3438 117.406 57.1562C117.615 59.9479 117.719 62.1979 117.719 63.9062H117.906C118.635 62.0938 119.542 60.0104 120.625 57.6562C121.708 55.3021 122.51 53.6771 123.031 52.7812L133.188 33.75H138.75L117 73.8125C115.062 77.3958 113.146 79.8854 111.25 81.2812C109.354 82.6771 107.073 83.375 104.406 83.375C102.906 83.375 101.448 83.1562 100.031 82.7188V78.5C101.344 78.875 102.708 79.0625 104.125 79.0625C105.833 79.0625 107.292 78.5312 108.5 77.4688C109.729 76.4271 110.917 74.875 112.062 72.8125L114.438 68.5625L109.25 33.75ZM137.469 53.3438L138.562 48.4062H153.531L152.469 53.3438H137.469ZM190.125 33.75L189.344 37.0938L182.75 37.8438C183.604 39.1354 184.031 40.7812 184.031 42.7812C184.031 46.7604 182.812 49.9375 180.375 52.3125C177.958 54.6667 174.719 55.8438 170.656 55.8438C169.51 55.8438 168.635 55.7604 168.031 55.5938C165.135 56.6979 163.688 58.0625 163.688 59.6875C163.688 60.5417 164.031 61.1146 164.719 61.4062C165.406 61.6771 166.406 61.8958 167.719 62.0625L171.375 62.5C175.146 62.9583 177.875 63.875 179.562 65.25C181.271 66.625 182.125 68.6458 182.125 71.3125C182.125 75.1458 180.604 78.1146 177.562 80.2188C174.521 82.3229 170.24 83.375 164.719 83.375C160.677 83.375 157.51 82.6042 155.219 81.0625C152.927 79.5417 151.781 77.3854 151.781 74.5938C151.781 72.4062 152.531 70.5104 154.031 68.9062C155.531 67.3021 157.958 65.9375 161.312 64.8125C159.688 63.9583 158.875 62.6979 158.875 61.0312C158.875 59.5938 159.406 58.3646 160.469 57.3438C161.531 56.3021 163.01 55.3333 164.906 54.4375C163.594 53.7708 162.521 52.7917 161.688 51.5C160.854 50.1875 160.438 48.6667 160.438 46.9375C160.438 42.8958 161.677 39.5833 164.156 37C166.656 34.4167 169.844 33.125 173.719 33.125C175.344 33.125 176.948 33.3333 178.531 33.75H190.125ZM156.844 74.0938C156.844 75.6979 157.521 76.9688 158.875 77.9062C160.229 78.8438 162.24 79.3125 164.906 79.3125C168.698 79.3125 171.656 78.6458 173.781 77.3125C175.927 76 177 74.1354 177 71.7188C177 70.4271 176.438 69.4062 175.312 68.6562C174.188 67.9062 172.271 67.3854 169.562 67.0938L164.594 66.5938C162.094 67.1146 160.177 68.0312 158.844 69.3438C157.51 70.6562 156.844 72.2396 156.844 74.0938ZM165.531 46.75C165.531 48.5208 166 49.875 166.938 50.8125C167.875 51.7292 169.177 52.1875 170.844 52.1875C172.49 52.1875 173.927 51.75 175.156 50.875C176.385 50 177.323 48.8021 177.969 47.2812C178.635 45.7396 178.969 44.0729 178.969 42.2812C178.969 40.5729 178.51 39.2708 177.594 38.375C176.677 37.4792 175.365 37.0312 173.656 37.0312C172.031 37.0312 170.604 37.4583 169.375 38.3125C168.167 39.1458 167.219 40.3229 166.531 41.8438C165.865 43.3438 165.531 44.9792 165.531 46.75ZM194.906 68H189.656L196.969 33.75H202.219L194.906 68ZM198.438 25C198.438 23.8333 198.771 22.8854 199.438 22.1562C200.104 21.4062 200.969 21.0312 202.031 21.0312C203.865 21.0312 204.781 21.9688 204.781 23.8438C204.781 24.9896 204.427 25.9583 203.719 26.75C203.031 27.5417 202.229 27.9375 201.312 27.9375C200.479 27.9375 199.792 27.6875 199.25 27.1875C198.708 26.6667 198.438 25.9375 198.438 25ZM227.562 33.125C229 33.125 230.25 33.2708 231.312 33.5625L230.188 38.25C229.083 37.9792 227.99 37.8438 226.906 37.8438C225.01 37.8438 223.229 38.4688 221.562 39.7188C219.917 40.9688 218.469 42.7083 217.219 44.9375C215.99 47.1458 215.083 49.6042 214.5 52.3125L211.156 68H205.906L213.219 33.75H217.562L216.875 40.0938H217.188C218.688 38.1146 219.927 36.6979 220.906 35.8438C221.885 34.9688 222.906 34.3021 223.969 33.8438C225.052 33.3646 226.25 33.125 227.562 33.125ZM249.531 33.3125C253.49 33.3125 256.615 34.4896 258.906 36.8438C261.198 39.1771 262.344 42.3958 262.344 46.5C262.344 50.4167 261.594 54.1146 260.094 57.5938C258.594 61.0729 256.562 63.7604 254 65.6562C251.438 67.5521 248.542 68.5 245.312 68.5C241.312 68.5 238.177 67.3229 235.906 64.9688C233.635 62.6146 232.5 59.3958 232.5 55.3125C232.5 51.3542 233.26 47.6354 234.781 44.1562C236.302 40.6562 238.354 37.9792 240.938 36.125C243.521 34.25 246.385 33.3125 249.531 33.3125ZM256.906 45.7812C256.906 43.3854 256.25 41.4479 254.938 39.9688C253.646 38.4688 251.885 37.7188 249.656 37.7188C247.385 37.7188 245.344 38.4896 243.531 40.0312C241.74 41.5729 240.344 43.7188 239.344 46.4688C238.365 49.1979 237.875 52.2396 237.875 55.5938C237.875 58.3229 238.531 60.4375 239.844 61.9375C241.177 63.4167 243.083 64.1562 245.562 64.1562C247.729 64.1562 249.677 63.3958 251.406 61.875C253.135 60.3542 254.479 58.1979 255.438 55.4062C256.417 52.5938 256.906 49.3854 256.906 45.7812Z" fill="#ECF100"/>
<path d="M225.262 82.5573L225.43 81.0667L225.262 82.5573ZM277.565 55.518L278.877 56.2434L278.877 56.2434L277.565 55.518ZM282.054 49.5845C281.825 48.7885 280.994 48.3292 280.198 48.5587L267.226 52.298C266.43 52.5274 265.97 53.3588 266.2 54.1548C266.429 54.9508 267.261 55.4101 268.057 55.1806L279.587 51.8568L282.911 63.3873C283.141 64.1833 283.972 64.6426 284.768 64.4131C285.564 64.1837 286.023 63.3524 285.794 62.5563L282.054 49.5845ZM150.829 75.7125L225.095 84.048L225.43 81.0667L151.163 72.7312L150.829 75.7125ZM278.877 56.2434L281.926 50.7254L279.3 49.2746L276.252 54.7926L278.877 56.2434ZM225.095 84.048C246.995 86.506 268.22 75.533 278.877 56.2434L276.252 54.7926C266.181 73.0204 246.124 83.3894 225.43 81.0667L225.095 84.048Z" fill="#ECF100"/>
</svg>
